<svg width="24" height="24" viewBox="0 0 24 24" fill="none" xmlns="http://www.w3.org/2000/svg">
<g clip-path="url(#clip0_195_640)">
<g clip-path="url(#clip1_195_640)">
<path d="M10.1262 2.0663L0.290303 19.1014C0.112631 19.409 0.0190759 19.758 0.019043 20.1133C0.0190101 20.4685 0.112501 20.8175 0.290115 21.1252C0.46773 21.4328 0.723209 21.6883 1.03087 21.8659C1.33853 22.0436 1.68753 22.137 2.04278 22.137H21.7131C22.0683 22.137 22.4173 22.0436 22.725 21.8659C23.0326 21.6883 23.2881 21.4328 23.4657 21.1252C23.6433 20.8175 23.7368 20.4685 23.7368 20.1133C23.7368 19.758 23.6432 19.409 23.4655 19.1014L13.6307 2.0663C13.4531 1.75873 13.1977 1.50332 12.8901 1.32575C12.5825 1.14817 12.2336 1.05469 11.8784 1.05469C11.5233 1.05469 11.1744 1.14817 10.8668 1.32575C10.5592 1.50332 10.3038 1.75873 10.1262 2.0663Z" fill="#ED555F"/>
<path d="M12.0068 7.32031H11.7502C11.1185 7.32031 10.6064 7.8324 10.6064 8.46408V13.9311C10.6064 14.5628 11.1185 15.0749 11.7502 15.0749H12.0068C12.6385 15.0749 13.1506 14.5628 13.1506 13.9311V8.46408C13.1506 7.8324 12.6385 7.32031 12.0068 7.32031Z" fill="#FFD7D7"/>
<path d="M11.8785 19.4108C12.581 19.4108 13.1506 18.8413 13.1506 18.1388C13.1506 17.4362 12.581 16.8667 11.8785 16.8667C11.176 16.8667 10.6064 17.4362 10.6064 18.1388C10.6064 18.8413 11.176 19.4108 11.8785 19.4108Z" fill="#FFD7D7"/>
</g>
</g>
<defs>
<clipPath id="clip0_195_640">
<rect width="24" height="24" fill="white"/>
</clipPath>
<clipPath id="clip1_195_640">
<rect width="23.757" height="21.1833" fill="white" transform="translate(0 1)"/>
</clipPath>
</defs>
</svg>
