<svg width="18" height="18" viewBox="0 0 18 18" fill="none" xmlns="http://www.w3.org/2000/svg">
<g clip-path="url(#clip0_448_1458)">
<path d="M9 16.5C13.1421 16.5 16.5 13.1421 16.5 9C16.5 4.85786 13.1421 1.5 9 1.5C4.85786 1.5 1.5 4.85786 1.5 9C1.5 13.1421 4.85786 16.5 9 16.5Z" stroke="black" stroke-width="1.5" stroke-linecap="round" stroke-linejoin="round"/>
<path d="M6.8175 6.74945C6.99383 6.2482 7.34187 5.82553 7.79997 5.5563C8.25807 5.28707 8.79668 5.18865 9.32039 5.27848C9.8441 5.36831 10.3191 5.64059 10.6613 6.0471C11.0035 6.4536 11.1908 6.96809 11.19 7.49945C11.19 8.99945 8.94 9.74945 8.94 9.74945" stroke="black" stroke-width="1.5" stroke-linecap="round" stroke-linejoin="round"/>
<path d="M9 12.75H9.0075" stroke="black" stroke-width="1.5" stroke-linecap="round" stroke-linejoin="round"/>
</g>
<defs>
<clipPath id="clip0_448_1458">
<rect width="18" height="18" fill="white"/>
</clipPath>
</defs>
</svg>
