<svg width="110" height="110" viewBox="0 0 110 110" fill="none" xmlns="http://www.w3.org/2000/svg">
<g clip-path="url(#clip0_573_955)">
<path d="M55.2551 0.866699C85.414 0.866699 109.822 25.2717 109.822 55.4334C109.822 85.592 85.4168 110 55.2551 110C25.0961 110 0.68837 85.5951 0.68837 55.4334C0.68837 25.2749 25.0933 0.866699 55.2551 0.866699ZM49.6515 77.094C49.6515 78.818 52.1654 80.5415 55.254 80.5415C58.4862 80.5415 60.7844 78.818 60.7844 77.094V49.7282C60.7844 47.7171 58.486 46.3521 55.254 46.3521C52.1654 46.3521 49.6515 47.7171 49.6515 49.7282V77.094ZM55.2538 39.7446C58.5578 39.7446 61.1434 37.3025 61.1434 34.5729C61.1434 31.8435 58.5576 29.4733 55.2538 29.4733C52.0216 29.4733 49.4356 31.8435 49.4356 34.5729C49.4356 37.3025 52.0218 39.7446 55.2538 39.7446Z" fill="black"/>
</g>
<defs>
<clipPath id="clip0_573_955">
<rect width="109.133" height="109.133" fill="white" transform="matrix(-1 0 0 1 109.822 0.866699)"/>
</clipPath>
</defs>
</svg>
