<svg width="24" height="24" viewBox="0 0 24 24" fill="none" xmlns="http://www.w3.org/2000/svg">
<g clip-path="url(#clip0_195_647)">
<g clip-path="url(#clip1_195_647)">
<path d="M12 0C18.6324 0 24 5.367 24 12C24 18.6323 18.633 24 12 24C5.36761 24 0 18.633 0 12C0 5.3677 5.367 0 12 0ZM10.7677 16.7635C10.7677 17.1426 11.3205 17.5216 11.9998 17.5216C12.7106 17.5216 13.216 17.1426 13.216 16.7635V10.7453C13.216 10.3031 12.7105 10.0029 11.9998 10.0029C11.3205 10.0029 10.7677 10.3031 10.7677 10.7453V16.7635ZM11.9997 8.54981C12.7263 8.54981 13.2949 8.01277 13.2949 7.41248C13.2949 6.81225 12.7263 6.291 11.9997 6.291C11.2889 6.291 10.7202 6.81225 10.7202 7.41248C10.7202 8.01277 11.289 8.54981 11.9997 8.54981Z" fill="#7684CB"/>
</g>
</g>
<defs>
<clipPath id="clip0_195_647">
<rect width="24" height="24" fill="white"/>
</clipPath>
<clipPath id="clip1_195_647">
<rect width="24" height="24" fill="white" transform="matrix(-1 0 0 1 24 0)"/>
</clipPath>
</defs>
</svg>
