<svg width="110" height="110" viewBox="0 0 110 110" fill="none" xmlns="http://www.w3.org/2000/svg">
<g clip-path="url(#clip0_573_945)">
<g clip-path="url(#clip1_573_945)">
<path fill-rule="evenodd" clip-rule="evenodd" d="M46.3649 10.2626L1.63875 87.7251C0.830839 89.1239 0.405423 90.7108 0.405273 92.3262C0.405124 93.9416 0.830247 95.5286 1.6379 96.9276C2.44555 98.3266 3.60728 99.4883 5.00628 100.296C6.40528 101.104 7.99225 101.529 9.60765 101.529H99.0528C100.668 101.529 102.255 101.104 103.654 100.296C105.053 99.4883 106.215 98.3266 107.023 96.9276C107.83 95.5286 108.255 93.9416 108.255 92.3262C108.255 90.7108 107.83 89.1239 107.022 87.7251L62.3003 10.2626C61.4928 8.86404 60.3314 7.70264 58.9328 6.89517C57.5341 6.0877 55.9476 5.6626 54.3326 5.6626C52.7177 5.6626 51.1311 6.0877 49.7325 6.89517C48.3339 7.70264 47.1725 8.86404 46.3649 10.2626ZM54.9178 34.1549H53.7511C50.8786 34.1549 48.5501 36.4834 48.5501 39.3558V64.2156C48.5501 67.088 50.8786 69.4166 53.7511 69.4166H54.9178C57.7902 69.4166 60.1187 67.088 60.1187 64.2156V39.3558C60.1187 36.4834 57.7902 34.1549 54.9178 34.1549ZM60.1185 83.3488C60.1185 86.5434 57.5288 89.1331 54.3342 89.1331C51.1396 89.1331 48.5499 86.5434 48.5499 83.3488C48.5499 80.1542 51.1396 77.5644 54.3342 77.5644C57.5288 77.5644 60.1185 80.1542 60.1185 83.3488Z" fill="black"/>
</g>
</g>
<defs>
<clipPath id="clip0_573_945">
<rect width="109.133" height="109.133" fill="white" transform="translate(0.317871 0.866699)"/>
</clipPath>
<clipPath id="clip1_573_945">
<rect width="108.028" height="96.3254" fill="white" transform="translate(0.317871 5.41357)"/>
</clipPath>
</defs>
</svg>
