<svg width="18" height="18" viewBox="0 0 18 18" fill="none" xmlns="http://www.w3.org/2000/svg">
<path d="M17.1656 9.811C17.0241 11.343 16.4491 12.803 15.5081 14.0201C14.567 15.2373 13.2988 16.1612 11.8518 16.6839C10.4048 17.2066 8.83882 17.3063 7.33719 16.9715C5.83555 16.6367 4.46033 15.8811 3.37244 14.7932C2.28455 13.7053 1.52898 12.3301 1.19415 10.8285C0.859322 9.32682 0.959078 7.76088 1.48175 6.31387C2.00442 4.86686 2.92838 3.59863 4.14553 2.65758C5.36267 1.71653 6.82265 1.14157 8.35464 1C7.45771 2.21344 7.0261 3.70851 7.13831 5.21327C7.25053 6.71804 7.89911 8.13256 8.9661 9.19954C10.0331 10.2665 11.4476 10.9151 12.9524 11.0273C14.4571 11.1395 15.9522 10.7079 17.1656 9.811Z" stroke="black" stroke-width="1.35" stroke-linecap="round" stroke-linejoin="round"/>
</svg>
