<svg width="349" height="63" viewBox="0 0 349 63" fill="none" xmlns="http://www.w3.org/2000/svg">
<path d="M125.024 13.5972H109.976V57.7332H101.048V13.5972H86V5.17324H125.024V13.5972Z" fill="black"/>
<path d="M164.42 36.1332V57.7332H155.924V38.0052C155.924 36.2772 155.708 34.8372 155.276 33.6852C154.892 32.4852 154.34 31.5492 153.62 30.8772C152.9 30.1572 152.06 29.6532 151.1 29.3652C150.14 29.0292 149.108 28.8612 148.004 28.8612C146.996 28.8612 145.964 29.0532 144.908 29.4372C143.9 29.7732 142.964 30.3252 142.1 31.0932C141.236 31.8132 140.54 32.7732 140.012 33.9732C139.484 35.1252 139.22 36.5172 139.22 38.1492V57.7332H130.724V4.23724H139.22V25.9092C140.324 24.4692 141.788 23.3172 143.612 22.4532C145.484 21.5892 147.524 21.1572 149.732 21.1572C154.388 21.1572 157.988 22.4292 160.532 24.9732C163.124 27.5172 164.42 31.2372 164.42 36.1332Z" fill="black"/>
<path d="M205.756 43.1172H178.54C178.828 45.8532 179.86 47.9172 181.636 49.3092C183.412 50.6532 185.596 51.3252 188.188 51.3252C190.348 51.3252 192.196 50.8692 193.732 49.9572C195.268 48.9972 196.444 47.6532 197.26 45.9252L204.388 48.7332C203.044 51.9012 200.932 54.3492 198.052 56.0772C195.22 57.8052 191.932 58.6692 188.188 58.6692C185.596 58.6692 183.196 58.2372 180.988 57.3732C178.828 56.4612 176.956 55.1892 175.372 53.5572C173.836 51.9252 172.636 49.9572 171.772 47.6532C170.908 45.3492 170.476 42.8052 170.476 40.0212C170.476 37.2372 170.908 34.6932 171.772 32.3892C172.636 30.0372 173.836 28.0452 175.372 26.4132C176.956 24.7332 178.852 23.4372 181.06 22.5252C183.268 21.6132 185.692 21.1572 188.332 21.1572C190.924 21.1572 193.3 21.6132 195.46 22.5252C197.62 23.4372 199.444 24.7092 200.932 26.3412C202.468 27.9732 203.644 29.9412 204.46 32.2452C205.324 34.5492 205.756 37.1172 205.756 39.9492V43.1172ZM197.116 37.1412C196.924 34.2132 196.036 32.0052 194.452 30.5172C192.868 29.0292 190.756 28.2852 188.116 28.2852C185.476 28.2852 183.316 29.0532 181.636 30.5892C180.004 32.0772 179.02 34.2612 178.684 37.1412H197.116Z" fill="black"/>
<path d="M231.506 29.2932H224.666V57.7332H216.242V29.2932H209.33V22.2372H216.242V11.1492H224.666V22.2372H231.506V29.2932Z" fill="black"/>
<path d="M259.216 57.7332C258.976 56.7252 258.784 55.3812 258.64 53.7012C257.632 55.1892 256.192 56.3892 254.32 57.3012C252.496 58.2132 250.288 58.6692 247.696 58.6692C243.808 58.6692 240.688 57.6612 238.336 55.6452C235.984 53.5812 234.808 50.7492 234.808 47.1492C234.808 43.6452 235.96 40.9332 238.264 39.0132C240.568 37.0452 243.736 36.0612 247.768 36.0612H258.424V34.6932C258.424 32.3892 257.752 30.7092 256.408 29.6532C255.112 28.5972 253.312 28.0692 251.008 28.0692C246.88 28.0692 243.904 29.7972 242.08 33.2532L235.888 29.6532C237.424 26.7252 239.536 24.5892 242.224 23.2452C244.912 21.8532 247.984 21.1572 251.44 21.1572C255.904 21.1572 259.576 22.3092 262.456 24.6132C265.336 26.9172 266.776 30.6612 266.776 35.8452V49.9572C266.776 53.9892 266.992 56.5812 267.424 57.7332H259.216ZM258.496 41.9652H249.712C247.696 41.9652 246.136 42.4212 245.032 43.3332C243.976 44.2452 243.448 45.4932 243.448 47.0772C243.448 48.7572 244 50.0292 245.104 50.8932C246.256 51.7572 247.864 52.1892 249.928 52.1892C252.28 52.1892 254.296 51.4452 255.976 49.9572C257.656 48.4212 258.496 46.0212 258.496 42.7572V41.9652Z" fill="black"/>
<path d="M307.352 57.7332H298.856V29.2932H286.04V57.7332H277.688V29.2932H270.776V22.2372H277.688V11.1492H286.04V22.2372H307.352V57.7332Z" fill="black"/>
<path d="M313.389 57.7332L325.773 40.3092L313.029 22.2372H323.109C325.077 24.9732 327.765 29.0532 331.173 34.4772L338.805 22.2372H348.597L335.997 40.2372L348.309 57.7332H338.301C337.389 56.4852 336.285 54.8772 334.989 52.9092C333.693 50.9412 332.205 48.6132 330.525 45.9252L323.037 57.7332H313.389Z" fill="black"/>
<path d="M309.046 9.25794L299.488 4.30773C299.302 4.21202 299.077 4.21422 298.894 4.31213C298.71 4.41113 298.597 4.59154 298.597 4.78735V14.6878C298.597 14.8836 298.71 15.064 298.894 15.163C298.987 15.2125 299.091 15.2378 299.195 15.2378C299.295 15.2378 299.397 15.2147 299.488 15.1674L309.046 10.2172C309.234 10.1193 309.351 9.93667 309.351 9.73756C309.351 9.53845 309.234 9.35584 309.046 9.25794Z" fill="black"/>
<path d="M27.7405 3.25091C27.685 2.62413 27.0027 2.05284 26.3759 2.10834L18.8569 2.77408C16.7263 2.96273 15.2416 4.73588 15.4303 6.86647L16.318 16.8926L51.4072 13.7858L50.5196 3.76082C50.3309 1.63023 48.5578 0.145535 46.4272 0.334181L38.9081 0.999928C38.5759 1.02998 38.2692 1.19046 38.055 1.44621C37.8409 1.70197 37.7368 2.03216 37.7656 2.36449C37.8617 3.68224 37.4358 4.98494 36.5797 5.99137C35.7237 6.99779 34.5062 7.6272 33.1901 7.74373C31.874 7.86026 30.5648 7.45456 29.5453 6.61421C28.5257 5.77385 27.8775 4.56626 27.7406 3.25212L27.7405 3.25091Z" fill="black"/>
<path d="M11.5277 5.57033C11.2219 4.9657 10.4368 4.65692 9.83216 4.96265L2.91047 8.10231C0.960492 8.90666 0.158506 11.2559 0.951249 13.0748L16.3831 47.5771L12.8325 7.47599C12.2852 6.92543 11.8431 6.27963 11.5277 5.57033Z" fill="black"/>
<path fill-rule="evenodd" clip-rule="evenodd" d="M23.9621 60.4202L31.4811 59.7545C32.233 59.6879 32.6903 59.1418 32.6237 58.3899C32.5545 57.7261 32.6181 57.0551 32.8108 56.416C33.0034 55.7769 33.3212 55.1826 33.7457 54.6675C34.1703 54.1525 34.693 53.727 35.2835 53.4159C35.8741 53.1048 36.5206 52.9142 37.1854 52.8554C37.8503 52.7965 38.5202 52.8705 39.1562 53.073C39.7922 53.2755 40.3816 53.6025 40.89 54.035C41.3984 54.4674 41.8158 54.9967 42.1177 55.5919C42.4196 56.1872 42.6001 56.8366 42.6487 57.5023C42.7152 58.2542 43.2613 58.7115 44.0132 58.6449L51.5322 57.9791C53.6628 57.7905 55.1475 56.0173 54.9589 53.8867L51.6302 16.2916L16.541 19.3985L19.8697 56.9936C20.0579 59.1194 21.8315 60.6089 23.9621 60.4202ZM29.3611 26.5579L45.1544 33.0607C45.4644 33.1895 45.6748 33.462 45.7023 33.7767C45.7298 34.0914 45.57 34.3962 45.287 34.5769L30.8629 43.7234C30.7259 43.8107 30.5685 43.8613 30.4099 43.8752C30.2456 43.8895 30.0778 43.8639 29.9236 43.7986C29.6191 43.6675 29.4166 43.3979 29.3895 43.0884L28.0204 27.4392C27.9933 27.1297 28.1459 26.829 28.423 26.647C28.6985 26.467 29.0551 26.4323 29.3611 26.5579Z" fill="black"/>
</svg>
